<?xml version="1.0" ?><!DOCTYPE svg  PUBLIC '-//W3C//DTD SVG 1.1//EN'  'http://www.w3.org/Graphics/SVG/1.1/DTD/svg11.dtd'><svg enable-background="new 0 0 512 512" height="512px" id="Layer_1" version="1.1" viewBox="0 0 512 512" width="512px" xml:space="preserve" xmlns="http://www.w3.org/2000/svg" xmlns:xlink="http://www.w3.org/1999/xlink"><g><linearGradient gradientUnits="userSpaceOnUse" id="SVGID_1_" x1="8.9756" x2="577.923" y1="-78.99" y2="557.6892"><stop offset="0" style="stop-color:#517FA6"/><stop offset="1" style="stop-color:#426699"/></linearGradient><path d="M271.06,214.363v-0.525c-0.1,0.17-0.247,0.36-0.347,0.525H271.06z" fill="url(#SVGID_1_)"/><linearGradient gradientUnits="userSpaceOnUse" id="SVGID_2_" x1="-20.1191" x2="548.8283" y1="-52.9904" y2="583.6888"><stop offset="0" style="stop-color:#517FA6"/><stop offset="1" style="stop-color:#426699"/></linearGradient><path d="M256,7.098C118.535,7.098,7.098,118.535,7.098,256c0,137.465,111.437,248.902,248.902,248.902   c137.465,0,248.902-111.437,248.902-248.902C504.902,118.535,393.465,7.098,256,7.098z M187.455,352.802h-53.822V190.89h53.822   V352.802z M160.554,168.794h-0.363c-18.058,0-29.755-12.445-29.755-27.992c0-15.886,12.052-27.969,30.465-27.969   c18.421,0,29.747,12.083,30.102,27.969C191.004,156.349,179.323,168.794,160.554,168.794z M381.564,352.805h-53.822v-86.627   c0-21.759-7.792-36.613-27.271-36.613c-14.875,0-23.725,10.008-27.624,19.687c-1.42,3.464-1.783,8.276-1.783,13.125v90.425h-53.83   c0,0,0.718-146.718,0-161.912h53.827v22.948c7.149-11.015,19.927-26.754,48.518-26.754c35.43,0,61.983,23.138,61.986,72.871   V352.805z" fill="#FFFFFF"/></g></svg>