<?xml version="1.0" standalone="no"?><!-- Generator: Gravit.io --><svg xmlns="http://www.w3.org/2000/svg" xmlns:xlink="http://www.w3.org/1999/xlink" style="isolation:isolate" viewBox="1215 165 80.038 30.038" width="80.038" height="30.038"><clipPath id="_clipPath_VxelUlj7AtQmigAamBdP8sINHGcJFmhs"><path d=" M 1282.229 189.227 C 1278.338 189.227 1275.172 186.067 1275.172 182.182 C 1275.172 178.298 1278.338 175.137 1282.229 175.137 C 1286.119 175.137 1289.285 178.298 1289.285 182.182 C 1289.285 186.067 1286.119 189.227 1282.229 189.227 Z  M 1265.224 186.44 C 1263.934 188.132 1261.896 189.227 1259.607 189.227 C 1256.744 189.227 1254.275 187.515 1253.17 185.064 L 1266.043 185.064 L 1269.66 185.064 L 1269.759 185.064 C 1269.867 185.533 1270.003 185.992 1270.162 186.44 L 1265.224 186.44 Z  M 1247.383 186.44 L 1242.602 186.44 C 1241.312 188.132 1239.274 189.227 1236.985 189.227 C 1234.122 189.227 1231.653 187.515 1230.548 185.064 L 1243.421 185.064 L 1247.038 185.064 L 1247.137 185.064 C 1247.208 185.37 1247.29 185.673 1247.383 185.971 L 1247.383 186.44 Z  M 1236.985 175.137 C 1239.859 175.137 1242.336 176.863 1243.435 179.331 L 1230.534 179.331 C 1231.633 176.863 1234.11 175.137 1236.985 175.137 Z  M 1259.607 175.137 C 1262.481 175.137 1264.958 176.863 1266.057 179.331 L 1253.156 179.331 C 1254.255 176.863 1256.732 175.137 1259.607 175.137 Z  M 1295.038 165 L 1289.297 165 L 1289.297 171.536 C 1287.27 170.19 1284.84 169.405 1282.229 169.405 C 1277.331 169.405 1273.068 172.166 1270.917 176.21 C 1268.767 172.166 1264.504 169.405 1259.607 169.405 C 1254.709 169.405 1250.446 172.166 1248.295 176.21 C 1246.145 172.166 1241.882 169.405 1236.985 169.405 C 1233.416 169.405 1230.185 170.871 1227.861 173.231 L 1227.861 169.357 L 1226.417 169.357 C 1220.111 169.357 1215 174.46 1215 180.755 L 1215 195.038 L 1220.742 195.038 L 1220.742 180.755 C 1220.742 177.65 1223.243 175.13 1226.344 175.091 C 1224.982 177.121 1224.187 179.561 1224.187 182.182 C 1224.187 189.228 1229.928 194.96 1236.985 194.96 C 1241.882 194.96 1246.145 192.199 1248.295 188.155 C 1250.446 192.199 1254.709 194.96 1259.607 194.96 C 1264.504 194.96 1268.766 192.198 1270.917 188.153 C 1273.067 192.198 1277.331 194.96 1282.229 194.96 C 1289.285 194.96 1295.026 189.228 1295.026 182.182 C 1295.026 182.149 1295.025 182.116 1295.025 182.083 L 1295.038 182.083 L 1295.038 165 Z " fill-rule="evenodd" fill="rgb(255,255,255)"/></clipPath><g clip-path="url(#_clipPath_VxelUlj7AtQmigAamBdP8sINHGcJFmhs)"><clipPath id="_clipPath_2vkv0eOQzHgPRjf48thx28cTKfFPcZDn"><path d=" M 1215 195 L 1294.873 195 L 1294.873 165 L 1215 165 L 1215 195 Z " fill="rgb(255,255,255)"/></clipPath><g clip-path="url(#_clipPath_2vkv0eOQzHgPRjf48thx28cTKfFPcZDn)"><path d=" M 1210 200.038 L 1300.038 200.038 L 1300.038 160 L 1210 160 L 1210 200.038 Z " fill="rgb(255,255,255)"/></g></g></svg>