<svg width="133" height="50" viewBox="0 0 133 50" fill="none" xmlns="http://www.w3.org/2000/svg">
<path fill-rule="evenodd" clip-rule="evenodd" d="M111.714 40.3275C105.248 40.3275 99.9883 35.067 99.9883 28.6007C99.9883 22.1345 105.248 16.874 111.714 16.874C118.179 16.874 123.439 22.1345 123.439 28.6007C123.439 35.067 118.179 40.3275 111.714 40.3275ZM83.4576 35.687C81.3141 38.5044 77.9279 40.3275 74.1232 40.3275C69.3657 40.3275 65.2641 37.4777 63.4272 33.397H84.8187H90.8295H90.993C91.1735 34.1777 91.3988 34.9414 91.6629 35.687H83.4576ZM53.8101 35.687H45.8658C43.7223 38.5044 40.3361 40.3275 36.5314 40.3275C31.7739 40.3275 27.6723 37.4777 25.8354 33.397H47.2269H53.2376H53.4012C53.5193 33.9071 53.6557 34.4107 53.8101 34.9065V35.687ZM36.5321 16.874C41.3088 16.874 45.425 19.7469 47.2505 23.8549H25.8135C27.639 19.7469 31.7552 16.874 36.5321 16.874ZM74.1234 16.874C78.9001 16.874 83.0163 19.7469 84.8418 23.8549H63.4048C65.2303 19.7469 69.3465 16.874 74.1234 16.874ZM133 0H123.459V10.879C120.091 8.63912 116.053 7.33206 111.714 7.33206C103.576 7.33206 96.4926 11.9279 92.9183 18.6597C89.3443 11.9279 82.2606 7.33206 74.123 7.33206C65.9852 7.33206 58.9014 11.9279 55.3272 18.6597C51.7532 11.9279 44.6695 7.33206 36.5319 7.33206C30.602 7.33206 25.2322 9.77271 21.3716 13.7013V7.25191H18.9713C8.49368 7.25191 0 15.7464 0 26.2252V50H9.54089V26.2252C9.54089 21.0571 13.6979 16.862 18.8499 16.7968C16.587 20.1763 15.2654 24.237 15.2654 28.6008C15.2654 40.3284 24.8055 49.8695 36.5319 49.8695C44.6695 49.8695 51.7532 45.2737 55.3272 38.5418C58.9014 45.2737 65.9852 49.8695 74.123 49.8695C82.2612 49.8695 89.3436 45.2721 92.917 38.5391C96.4908 45.2725 103.575 49.8695 111.714 49.8695C123.44 49.8695 132.98 40.3284 132.98 28.6008C132.98 28.5454 132.979 28.4903 132.978 28.4351H133V0Z" fill="#2684FF"/>
</svg>
