<svg width="765" height="678" viewBox="0 0 765 678" version="1.1" xmlns="http://www.w3.org/2000/svg" xmlns:xlink="http://www.w3.org/1999/xlink">
<g id="Canvas" fill="none">
<g id="Group 2">
<path id="Rectangle 18" opacity="0.1" fill-rule="evenodd" clip-rule="evenodd" d="M 0 35C 0 15.67 15.67 0 35 0L 159 0C 178.33 0 194 15.67 194 35L 194 226C 194 245.33 178.33 261 159 261L 35 261C 15.67 261 0 245.33 0 226L 0 35Z" transform="matrix(-0.707107 -0.707107 0.707107 -0.707107 447.312 648.368)" fill="#0065FF"/>
<path id="Rectangle 18_2" opacity="0.1" fill-rule="evenodd" clip-rule="evenodd" d="M 0 35C 0 15.67 15.67 0 35 0L 518 0C 537.33 0 553 15.67 553 35L 553 226C 553 245.33 537.33 261 518 261L 35 261C 15.67 261 0 245.33 0 226L 0 35Z" transform="matrix(-0.707107 -0.707107 0.707107 -0.707107 594.738 343.293)" fill="#0065FF"/>
<path id="Rectangle 18_3" opacity="0.1" fill-rule="evenodd" clip-rule="evenodd" d="M 0 35C 0 15.67 15.67 0 35 0L 518 0C 537.33 0 553 15.67 553 35L 553 226C 553 245.33 537.33 261 518 261L 35 261C 15.67 261 0 245.33 0 226L 0 35Z" transform="matrix(0.707107 -0.707107 0.707107 0.707107 -288.292 507.738)" fill="#0065FF"/>
</g>
</g>
</svg>
